<svg class="w-full h-full max-w-full max-h-full" viewBox="-3 -3 6 6" xmlns="http://www.w3.org/2000/svg" preserveAspectRatio="xMidYMid meet" overflow="visible" width="1024" height="1024"><g><polygon points="0.29,0.09 0.14,-0.97 0.6,0.6 0.31,1.17" style="fill: rgb(0, 76, 209); stroke: rgba(255, 255, 255, 0.12); stroke-width: 0.012; stroke-linejoin: round; stroke-linecap: round;"/><polygon points="-0.29,0.09 -0.14,-0.97 -0.6,0.6 -0.31,1.17" style="fill: rgb(0, 76, 209); stroke: rgba(255, 255, 255, 0.12); stroke-width: 0.012; stroke-linejoin: round; stroke-linecap: round;"/><polygon points="0.31572659410863124,0.16575052709763635 0.15291029263388084,-0.891048595046652 0.5540357461036428,0.534522619449529 0.3121100835706905,1.0900278326708304" style="fill: rgb(207, 255, 255); stroke: none; stroke-width: 0.012; stroke-linejoin: round; stroke-linecap: round;"/><polygon points="-0.31572659410863124,0.16575052709763635 -0.15291029263388084,-0.891048595046652 -0.5540357461036428,0.534522619449529 -0.3121100835706905,1.0900278326708304" style="fill: rgb(207, 255, 255); stroke: none; stroke-width: 0.012; stroke-linejoin: round; stroke-linecap: round;"/><polygon points="-0.21,-0.14 0.21,-0.14 -0.005,1.31 0.005,1.31" style="fill: rgb(207, 255, 255);"/><polygon points="-0.57,-0.23499999999999988 -0.7449999999999999,0.1582500000000001 -1.0699999999999998,0.645 -0.695,1.1070000000000002 -0.47,0.9750000000000001" style="fill: rgb(0, 49, 196);"/><polygon points="0.57,-0.23499999999999988 0.7449999999999999,0.1582500000000001 1.0699999999999998,0.645 0.695,1.1070000000000002 0.47,0.9750000000000001" style="fill: rgb(0, 49, 196);"/><polygon points="0.54,0.05499999999999999 0.68875,0.28575 0.9650000000000001,0.7549999999999999 0.64625,0.7689999999999999 0.455,0.7649999999999999" style="fill: rgb(207, 255, 255);"/><polygon points="-0.54,0.05499999999999999 -0.68875,0.28575 -0.9650000000000001,0.7549999999999999 -0.64625,0.7689999999999999 -0.455,0.7649999999999999" style="fill: rgb(207, 255, 255);"/><polygon points="0.43000000000000005,-0.33 0.25,-0.33 0.29050000000000004,1.2999999999999998 0.3895,1.2999999999999998" style="fill: rgb(68, 255, 136);"/><polygon points="-0.25,-0.33 -0.43000000000000005,-0.33 -0.3895,1.2999999999999998 -0.29050000000000004,1.2999999999999998" style="fill: rgb(68, 255, 136);"/><polygon points="0,-0.18 0.51,-0.56 -0.23,0.96 -0.48,-0.14 -0.16799999999999998,-0.74 0,-0.22000000000000003 0.16799999999999998,-0.74 0.48,-0.14 0.23,0.96 -0.51,-0.56" style="fill: rgb(207, 255, 255); stroke: rgba(255, 255, 255, 0.12); stroke-width: 0.012; stroke-linejoin: round; stroke-linecap: round;"/><polygon points="0,-0.6 0.21,-0.54 0.35,-0.11 0.2,-0.23 -0.2,-0.23 -0.35,-0.11 -0.21,-0.54" style="fill: rgb(108, 0, 255); stroke: rgba(255, 255, 255, 0.12); stroke-width: 0.012; stroke-linejoin: round; stroke-linecap: round;"/><rect x="0.135" y="-0.14500000000000007" width="0.11" height="1.11" rx="0.0275" transform="rotate(3 0.19 0.41)" style="fill: rgb(0, 73, 255);"/><rect x="-0.245" y="-0.14500000000000007" width="0.11" height="1.11" rx="0.0275" transform="rotate(-3 -0.19 0.41)" style="fill: rgb(0, 73, 255);"/><rect x="0.27" y="-0.41" width="0.06" height="0.82" rx="0.015" transform="rotate(11 0.3 0)" style="fill: rgb(0, 76, 209);"/><rect x="-0.32999999999999996" y="-0.41" width="0.06" height="0.82" rx="0.015" transform="rotate(-11 -0.3 0)" style="fill: rgb(0, 76, 209);"/><defs><linearGradient id="cockpitIridescence" x1="-100%" y1="100%" x2="200%" y2="0%"><stop offset="0%" stop-color="#001bff"><animate attributeName="stop-color" values="&#13;&#10;                                #001bff;&#13;&#10;                                #00eaff;&#13;&#10;                                #763cff;&#13;&#10;                                #ff35c9;&#13;&#10;                                #0066ff;&#13;&#10;                                #001bff&#13;&#10;                            " dur="7s" repeatCount="indefinite"/></stop><stop offset="22%" stop-color="#00dfff"><animate attributeName="stop-color" values="&#13;&#10;                                #00dfff;&#13;&#10;                                #763cff;&#13;&#10;                                #ff35c9;&#13;&#10;                                #00ffff;&#13;&#10;                                #00dfff&#13;&#10;                            " dur="8s" repeatCount="indefinite"/></stop><stop offset="42%" stop-color="#8a42ff"><animate attributeName="stop-color" values="&#13;&#10;                                #8a42ff;&#13;&#10;                                #ff42d0;&#13;&#10;                                #00ffff;&#13;&#10;                                #315cff;&#13;&#10;                                #8a42ff&#13;&#10;                            " dur="6s" repeatCount="indefinite"/></stop><stop offset="57%" stop-color="#ff45d7"><animate attributeName="stop-color" values="&#13;&#10;                                #ff45d7;&#13;&#10;                                #00ffff;&#13;&#10;                                #4265ff;&#13;&#10;                                #ff45d7&#13;&#10;                            " dur="9s" repeatCount="indefinite"/></stop><stop offset="75%" stop-color="#00cfff"><animate attributeName="stop-color" values="&#13;&#10;                                #00cfff;&#13;&#10;                                #3261ff;&#13;&#10;                                #ff38d1;&#13;&#10;                                #00cfff&#13;&#10;                            " dur="7.5s" repeatCount="indefinite"/></stop><stop offset="100%" stop-color="#d9ffff"><animate attributeName="stop-color" values="&#13;&#10;                                #d9ffff;&#13;&#10;                                #4fdcff;&#13;&#10;                                #c8a0ff;&#13;&#10;                                #d9ffff&#13;&#10;                            " dur="10s" repeatCount="indefinite"/></stop></linearGradient><linearGradient id="cockpitSpecular" x1="-100%" y1="0%" x2="0%" y2="100%"><stop offset="0%" stop-color="#ffffff" stop-opacity="0"/><stop offset="42%" stop-color="#ffffff" stop-opacity="0"/><stop offset="50%" stop-color="#ffffff" stop-opacity="0.72"/><stop offset="58%" stop-color="#ffffff" stop-opacity="0"/><stop offset="100%" stop-color="#ffffff" stop-opacity="0"/><animateTransform attributeName="gradientTransform" type="translate" from="-1 0" to="1 0" dur="4.5s" repeatCount="indefinite"/></linearGradient><linearGradient id="cockpitDepth" x1="0%" y1="0%" x2="0%" y2="100%"><stop offset="0%" stop-color="#ffffff" stop-opacity="0.42"/><stop offset="30%" stop-color="#ffffff" stop-opacity="0.08"/><stop offset="65%" stop-color="#001b55" stop-opacity="0.05"/><stop offset="100%" stop-color="#00052c" stop-opacity="0.42"/></linearGradient><linearGradient id="cockpitEdge" x1="0%" y1="0%" x2="100%" y2="100%"><stop offset="0%" stop-color="#ffffff" stop-opacity="0.85"/><stop offset="30%" stop-color="#00eaff" stop-opacity="0.7"/><stop offset="55%" stop-color="#b74cff" stop-opacity="0.75"/><stop offset="80%" stop-color="#ff49d7" stop-opacity="0.65"/><stop offset="100%" stop-color="#00eaff" stop-opacity="0.8"/></linearGradient></defs><polygon points="0,-0.6 0.21,-0.54 0.35,-0.11 0.2,-0.23 -0.2,-0.23 -0.35,-0.11 -0.21,-0.54" fill="url(#cockpitIridescence)" opacity="0.92"/><polygon points="0,-0.6 0.21,-0.54 0.35,-0.11 0.2,-0.23 -0.2,-0.23 -0.35,-0.11 -0.21,-0.54" fill="url(#cockpitSpecular)" opacity="0.65"/><polygon points="0,-0.6 0.21,-0.54 0.35,-0.11 0.2,-0.23 -0.2,-0.23 -0.35,-0.11 -0.21,-0.54" fill="url(#cockpitDepth)" opacity="0.55"/><polygon points="0,-0.6 0.21,-0.54 0.35,-0.11 0.2,-0.23 -0.2,-0.23 -0.35,-0.11 -0.21,-0.54" fill="none" stroke="url(#cockpitEdge)" stroke-width="0.025" stroke-linejoin="round" opacity="0.9"/><path d="&#10;                    M -0.105&#10;                      -0.5599999999999999&#10;&#10;                    L 0.12249999999999998&#10;                      -0.15&#10;                " fill="none" stroke="#ffffff" stroke-width="0.018" stroke-linecap="round" opacity="0.65"/><polygon points="0,-0.74 0.215,-0.56 -0.215,-0.56" style="fill: rgb(207, 255, 255);"/></g></svg>