<svg class="w-full h-full max-w-full max-h-full" viewBox="-3 -3 6 6" xmlns="http://www.w3.org/2000/svg" preserveAspectRatio="xMidYMid meet" overflow="visible" width="1024" height="1024"><g><polygon points="0.17,-0.04 1.18,0.26 1.32,0.55 0.17,0.57" style="fill: rgb(0, 112, 255); stroke: rgba(255, 255, 255, 0.12); stroke-width: 0.012; stroke-linejoin: round; stroke-linecap: round;"/><polygon points="-0.17,-0.04 -1.18,0.26 -1.32,0.55 -0.17,0.57" style="fill: rgb(0, 112, 255); stroke: rgba(255, 255, 255, 0.12); stroke-width: 0.012; stroke-linejoin: round; stroke-linecap: round;"/><polygon points="0.3096328941644603,0.05696728761420855 1.0121239624678795,0.2867887293934235 1.159667395845203,0.4934893280438011 0.325878954308031,0.5021637884029865" style="fill: rgb(99, 169, 235); stroke: none; stroke-width: 0.012; stroke-linejoin: round; stroke-linecap: round;"/><polygon points="-0.3096328941644603,0.05696728761420855 -1.0121239624678795,0.2867887293934235 -1.159667395845203,0.4934893280438011 -0.325878954308031,0.5021637884029865" style="fill: rgb(99, 169, 235); stroke: none; stroke-width: 0.012; stroke-linejoin: round; stroke-linecap: round;"/><rect x="0.27499999999999997" y="0.39499999999999996" width="0.17" height="0.35" rx="0.025500000000000002" style="fill: rgb(0, 65, 150);"/><rect x="-0.445" y="0.39499999999999996" width="0.17" height="0.35" rx="0.025500000000000002" style="fill: rgb(0, 65, 150);"/><polygon points="0.17,1.4049999999999998 0.2855,1.55775 0.5,1.875 0.2525,1.875 0.10400000000000001,1.875" style="fill: rgb(58, 107, 213);"/><polygon points="-0.17,1.4049999999999998 -0.2855,1.55775 -0.5,1.875 -0.2525,1.875 -0.10400000000000001,1.875" style="fill: rgb(58, 107, 213);"/><polygon points="0,-2 0.15,-1.83 0.17,0.32 0.16,2 0.055999999999999994,1.83 0,1.92 -0.055999999999999994,1.83 -0.16,2 -0.17,0.32 -0.15,-1.83" style="fill: rgb(99, 169, 235); stroke: rgba(255, 255, 255, 0.12); stroke-width: 0.012; stroke-linejoin: round; stroke-linecap: round;"/><polygon points="0,-1.86 0.11,-1.8 0.13,-1.49 0.07,-1.33 -0.07,-1.33 -0.13,-1.49 -0.11,-1.8" style="fill: rgb(0, 112, 255); stroke: rgba(255, 255, 255, 0.12); stroke-width: 0.012; stroke-linejoin: round; stroke-linecap: round;"/><rect x="1.235" y="0.125" width="0.07" height="0.55" rx="0.0175" transform="rotate(-27 1.27 0.4)" style="fill: rgb(58, 107, 213);"/><rect x="-1.305" y="0.125" width="0.07" height="0.55" rx="0.0175" transform="rotate(27 -1.27 0.4)" style="fill: rgb(58, 107, 213);"/><defs><linearGradient id="cockpitIridescence" x1="-100%" y1="100%" x2="200%" y2="0%"><stop offset="0%" stop-color="#001bff"><animate attributeName="stop-color" values="&#13;&#10;                                #001bff;&#13;&#10;                                #00eaff;&#13;&#10;                                #763cff;&#13;&#10;                                #ff35c9;&#13;&#10;                                #0066ff;&#13;&#10;                                #001bff&#13;&#10;                            " dur="7s" repeatCount="indefinite"/></stop><stop offset="22%" stop-color="#00dfff"><animate attributeName="stop-color" values="&#13;&#10;                                #00dfff;&#13;&#10;                                #763cff;&#13;&#10;                                #ff35c9;&#13;&#10;                                #00ffff;&#13;&#10;                                #00dfff&#13;&#10;                            " dur="8s" repeatCount="indefinite"/></stop><stop offset="42%" stop-color="#8a42ff"><animate attributeName="stop-color" values="&#13;&#10;                                #8a42ff;&#13;&#10;                                #ff42d0;&#13;&#10;                                #00ffff;&#13;&#10;                                #315cff;&#13;&#10;                                #8a42ff&#13;&#10;                            " dur="6s" repeatCount="indefinite"/></stop><stop offset="57%" stop-color="#ff45d7"><animate attributeName="stop-color" values="&#13;&#10;                                #ff45d7;&#13;&#10;                                #00ffff;&#13;&#10;                                #4265ff;&#13;&#10;                                #ff45d7&#13;&#10;                            " dur="9s" repeatCount="indefinite"/></stop><stop offset="75%" stop-color="#00cfff"><animate attributeName="stop-color" values="&#13;&#10;                                #00cfff;&#13;&#10;                                #3261ff;&#13;&#10;                                #ff38d1;&#13;&#10;                                #00cfff&#13;&#10;                            " dur="7.5s" repeatCount="indefinite"/></stop><stop offset="100%" stop-color="#d9ffff"><animate attributeName="stop-color" values="&#13;&#10;                                #d9ffff;&#13;&#10;                                #4fdcff;&#13;&#10;                                #c8a0ff;&#13;&#10;                                #d9ffff&#13;&#10;                            " dur="10s" repeatCount="indefinite"/></stop></linearGradient><linearGradient id="cockpitSpecular" x1="-100%" y1="0%" x2="0%" y2="100%"><stop offset="0%" stop-color="#ffffff" stop-opacity="0"/><stop offset="42%" stop-color="#ffffff" stop-opacity="0"/><stop offset="50%" stop-color="#ffffff" stop-opacity="0.72"/><stop offset="58%" stop-color="#ffffff" stop-opacity="0"/><stop offset="100%" stop-color="#ffffff" stop-opacity="0"/><animateTransform attributeName="gradientTransform" type="translate" from="-1 0" to="1 0" dur="4.5s" repeatCount="indefinite"/></linearGradient><linearGradient id="cockpitDepth" x1="0%" y1="0%" x2="0%" y2="100%"><stop offset="0%" stop-color="#ffffff" stop-opacity="0.42"/><stop offset="30%" stop-color="#ffffff" stop-opacity="0.08"/><stop offset="65%" stop-color="#001b55" stop-opacity="0.05"/><stop offset="100%" stop-color="#00052c" stop-opacity="0.42"/></linearGradient><linearGradient id="cockpitEdge" x1="0%" y1="0%" x2="100%" y2="100%"><stop offset="0%" stop-color="#ffffff" stop-opacity="0.85"/><stop offset="30%" stop-color="#00eaff" stop-opacity="0.7"/><stop offset="55%" stop-color="#b74cff" stop-opacity="0.75"/><stop offset="80%" stop-color="#ff49d7" stop-opacity="0.65"/><stop offset="100%" stop-color="#00eaff" stop-opacity="0.8"/></linearGradient></defs><polygon points="0,-1.86 0.11,-1.8 0.13,-1.49 0.07,-1.33 -0.07,-1.33 -0.13,-1.49 -0.11,-1.8" fill="url(#cockpitIridescence)" opacity="0.92"/><polygon points="0,-1.86 0.11,-1.8 0.13,-1.49 0.07,-1.33 -0.07,-1.33 -0.13,-1.49 -0.11,-1.8" fill="url(#cockpitSpecular)" opacity="0.65"/><polygon points="0,-1.86 0.11,-1.8 0.13,-1.49 0.07,-1.33 -0.07,-1.33 -0.13,-1.49 -0.11,-1.8" fill="url(#cockpitDepth)" opacity="0.55"/><polygon points="0,-1.86 0.11,-1.8 0.13,-1.49 0.07,-1.33 -0.07,-1.33 -0.13,-1.49 -0.11,-1.8" fill="none" stroke="url(#cockpitEdge)" stroke-width="0.025" stroke-linejoin="round" opacity="0.9"/><path d="&#10;                    M -0.055&#10;                      -1.82&#10;&#10;                    L 0.0455&#10;                      -1.53&#10;                " fill="none" stroke="#ffffff" stroke-width="0.018" stroke-linecap="round" opacity="0.65"/><polygon points="0,-2.09 0.16,-1.81 -0.16,-1.81" style="fill: rgb(58, 107, 213);"/></g></svg>