<svg xmlns="http://www.w3.org/2000/svg" viewBox="-340 -340 680 680" width="680" height="680" style="background-color: rgb(255, 255, 255);"><path d="M-215.53386917331153,128.41223870780405L-224.24413928299109,70.70856847749901L-56.05532909902638,-114.12081225169786zM-56.438265667813056,-114.2486869061441L-39.14600483161014,68.33865555455071L-216.0823944784452,128.0766914319468zM-223.9075097187384,70.33886516878913L-223.9075097187384,70.33886516878913L-215.18499001979353,128.4889329514919zM-215.80690291979516,127.66040013710276L-215.80690291979516,127.66040013710276L-38.71952225846839,67.67919145068299zM-56.330614710594254,-113.70356267546835L-56.330614710594254,-113.70356267546835L-224.5054450139502,71.57378864000682zM-39.6199964794047,68.4978155929429L-39.6199964794047,68.4978155929429L-56.760008223349395,-114.32896924785429z" style="fill:rgb(207,232,255);fill-opacity:1"></path><path d="M-200.30010529670668,111.67639115265116L-202.87574481122616,62.991893933399574L-66.35300204687843,-93.93177537550041zM-66.6992657893132,-94.05405526434213L-60.79144875057492,61.50730964235728L-200.79777851720394,111.34350164117978z" style="fill:rgb(223,241,255);fill-opacity:1"></path><path d="M-215.25916032552482,127.99446478694769L-223.98168002446968,69.84439700424491L-215.25916032552482,127.99446478694769zM-224.16939221347866,71.20356098667008L-55.994561910122705,-114.07379032880509L-224.16939221347866,71.20356098667008zM-39.19309454700744,67.83959496538228L-216.28047520833422,127.82080365180204L-39.19309454700744,67.83959496538228zM-56.7133378672076,-113.83115213499295L-39.5733261232629,68.99563270580424L-56.7133378672076,-113.83115213499295z" style="fill:rgb(207,232,255);fill-opacity:1"></path><path d="M-202.54743769101756,62.61478064164186L-202.54743769101756,62.61478064164186L-200.00130783851037,111.75678078920319zM-200.52389700848218,110.92635589189719L-200.52389700848218,110.92635589189719L-60.33951367659661,60.837886038474466zM-66.62656210259512,-93.51338556172682L-66.62656210259512,-93.51338556172682L-203.1769133131521,63.869439030930074zM-61.26283795169213,61.67401963326989L-61.26283795169213,61.67401963326989L-66.99097448525396,-94.13504637983756z" style="fill:rgb(223,241,255);fill-opacity:1"></path><path d="M-51.94699090820983,186.57421984571738L-89.5041900409614,-13.714448665866767L-56.88215166642286,81.07772565365268zM-57.29234818356293,80.17041382681217L-29.316103119413626,128.88693944758035L-52.22488211479671,186.54681022577742zM-57.57167030812421,81.07033203656557L-39.43257307217478,57.18856588359412L-29.433256915240715,129.84526895760678z" style="fill:rgb(124,255,244);fill-opacity:1"></path><path d="M-56.05591061876026,-114.12133972358093L-224.24692103972427,70.7096082752685L-215.5305058968445,128.41172638191765zM-216.08197212231664,128.07793688258056L-39.14509381669493,68.33728556192743L-56.439599038856834,-114.24856236415457zM56.05591061876026,-114.12133972358093L224.24692103972427,70.7096082752685L215.5305058968445,128.41172638191765zM216.08197212231664,128.07793688258056L39.14509381669493,68.33728556192743L56.439599038856834,-114.24856236415457z" style="fill:rgb(207,232,255);fill-opacity:1"></path><path d="M-200.02717897959099,111.25745055372852L-202.57330883209818,62.11545040616719L-200.02717897959099,111.25745055372852zM-202.84923993154453,63.4917749540233L-66.29888872098752,-93.89104963863359L-202.84923993154453,63.4917749540233zM-60.810360564407176,61.0061216121178L-200.99474389629276,111.09459146554053L-60.810360564407176,61.0061216121178zM-66.97260498472833,-93.6353839323288L-61.24446845116651,62.17368208077865L-66.97260498472833,-93.6353839323288z" style="fill:rgb(223,241,255);fill-opacity:1"></path><path d="M-29.680676035223374,129.41183753996333L-29.680676035223374,129.41183753996333L-39.805314511780026,57.09299158674007zM-52.24568577839469,186.04856419056154L-52.24568577839469,186.04856419056154L-29.383627978791125,127.98619819701726zM-89.34214342312596,-13.241436093467158L-89.34214342312596,-13.241436093467158L-51.87821125385004,186.56620214267116zM-56.85844341879492,81.57706158693391L-56.85844341879492,81.57706158693391L-89.57477966019701,-13.695789418334897zM-39.36568477220006,57.68407164070144L-39.36568477220006,57.68407164070144L-57.62279746002621,81.90269026303025z" style="fill:rgb(124,255,244);fill-opacity:1"></path><path d="M56.7133378672076,-113.83115213499295L39.5733261232629,68.99563270580424L56.7133378672076,-113.83115213499295zM39.19309454700744,67.83959496538228L216.28047520833422,127.82080365180204L39.19309454700744,67.83959496538228zM215.25916032552482,127.99446478694769L223.98168002446968,69.84439700424491L215.25916032552482,127.99446478694769zM224.16939221347866,71.20356098667008L55.994561910122705,-114.07379032880509L224.16939221347866,71.20356098667008z" style="fill:rgb(207,232,255);fill-opacity:1"></path><path d="M-66.35364227299421,-93.932330386985L-202.87876738601184,62.99264758607732L-200.2964424958052,111.676192511458zM-200.7972318361314,111.34503007547431L-60.79044708667356,61.505724908148316L-66.70081413428711,-94.05399896442769zM66.35364227299421,-93.932330386985L202.87876738601184,62.99264758607732L200.2964424958052,111.676192511458zM200.7972318361314,111.34503007547431L60.79044708667356,61.505724908148316L66.70081413428711,-94.05399896442769z" style="fill:rgb(223,241,255);fill-opacity:1"></path><path d="M-89.41238940789894,-13.222894709167447L-56.696053166496846,82.04995629610136L-89.41238940789894,-13.222894709167447zM-39.73599058922335,57.588162460036706L-29.6113521126667,129.90700841325997L-39.73599058922335,57.588162460036706zM-29.566813968285587,128.45143243184197L-52.42887176788915,186.51379842538626L-29.566813968285587,128.45143243184197zM-51.97035552137513,186.074766049204L-89.43428769065105,-13.732872186934319L-51.97035552137513,186.074766049204zM-57.321815565559604,81.50342857039836L-39.06470287773345,57.28480994806954L-57.321815565559604,81.50342857039836z" style="fill:rgb(124,255,244);fill-opacity:1"></path><path d="M39.6199964794047,68.4978155929429L39.6199964794047,68.4978155929429L56.760008223349395,-114.32896924785429zM215.80690291979516,127.66040013710276L215.80690291979516,127.66040013710276L38.71952225846839,67.67919145068299zM223.9075097187384,70.33886516878913L223.9075097187384,70.33886516878913L215.18499001979353,128.4889329514919zM56.330614710594254,-113.70356267546835L56.330614710594254,-113.70356267546835L224.5054450139502,71.57378864000682z" style="fill:rgb(207,232,255);fill-opacity:1"></path><path d="M66.97260498472833,-93.6353839323288L61.24446845116651,62.17368208077865L66.97260498472833,-93.6353839323288zM60.810360564407176,61.0061216121178L200.99474389629276,111.09459146554053L60.810360564407176,61.0061216121178zM200.02717897959099,111.25745055372852L202.57330883209818,62.11545040616719L200.02717897959099,111.25745055372852zM202.84923993154453,63.4917749540233L66.29888872098752,-93.89104963863359L202.84923993154453,63.4917749540233z" style="fill:rgb(223,241,255);fill-opacity:1"></path><path d="M211.95186796903485,37.7523210834519L224.33538517294338,37.75000319730433L223.87941339802862,161.0810080392981zM224.38146536429852,160.5810122498814L211.99794816039,160.58333013602896L212.45391993530475,37.2523252940352zM-224.38146536429852,37.7523210834519L-211.99794816039,37.75000319730433L-212.45391993530475,161.0810080392981zM-211.95186796903485,160.5810122498814L-224.33538517294338,160.58333013602896L-223.87941339802862,37.2523252940352z" style="fill:rgb(0,255,16);fill-opacity:1"></path><path d="M-56.881807213709145,81.07760775214314L-89.50470970571284,-13.714297764318259L-51.946815696172095,186.57418684567838zM29.430822258976857,129.8449346312666L39.439865831661145,57.18528514873868L57.566812204901716,81.07394709776122zM56.881807213709145,81.07760775214314L89.50470970571284,-13.714297764318259L51.946815696172095,186.57418684567838zM52.22186534170944,186.54799645503402L29.316005472416258,128.8839773409552L57.29546260364757,80.17218970418075zM-29.430822258976857,129.8449346312666L-39.439865831661145,57.18528514873868L-57.566812204901716,81.07394709776122zM-52.22186534170944,186.54799645503402L-29.316005472416258,128.8839773409552L-57.29546260364757,80.17218970418075z" style="fill:rgb(124,255,244);fill-opacity:1"></path><path d="M215.53386917331153,128.41223870780405L224.24413928299109,70.70856847749901L56.05532909902638,-114.12081225169786zM56.438265667813056,-114.2486869061441L39.14600483161014,68.33865555455071L216.0823944784452,128.0766914319468z" style="fill:rgb(207,232,255);fill-opacity:1"></path><path d="M61.26283795169213,61.67401963326989L61.26283795169213,61.67401963326989L66.99097448525396,-94.13504637983756zM200.52389700848218,110.92635589189719L200.52389700848218,110.92635589189719L60.33951367659661,60.837886038474466zM202.54743769101756,62.61478064164186L202.54743769101756,62.61478064164186L200.00130783851037,111.75678078920319zM66.62656210259512,-93.51338556172682L66.62656210259512,-93.51338556172682L203.1769133131521,63.869439030930074z" style="fill:rgb(223,241,255);fill-opacity:1"></path><path d="M212.5000001266599,37.74999898672103L212.5000001266599,161.08333434661228L212.5000001266599,37.74999898672103zM212.0000001266599,160.08333434661228L224.83333320667347,160.08333434661228L212.0000001266599,160.08333434661228zM223.83333320667347,160.58333434661228L223.83333320667347,37.24999898672103L223.83333320667347,160.58333434661228zM224.33333320667347,38.24999898672103L211.5000001266599,38.24999898672103L224.33333320667347,38.24999898672103zM-223.83333320667347,37.74999898672103L-223.83333320667347,161.08333434661228L-223.83333320667347,37.74999898672103zM-224.33333320667347,160.08333434661228L-211.5000001266599,160.08333434661228L-224.33333320667347,160.08333434661228zM-212.5000001266599,160.58333434661228L-212.5000001266599,37.24999898672103L-212.5000001266599,160.58333434661228zM-212.0000001266599,38.24999898672103L-224.83333320667347,38.24999898672103L-212.0000001266599,38.24999898672103z" style="fill:rgb(0,255,16);fill-opacity:1"></path><path d="M-0.3372817385839181,-221.916084897904L51.29733792320393,-141.74535023376419L39.7066126774844,74.66144053582262zM-39.70729377690127,74.66147619751943L-51.29796726680563,-141.74622944862293L0.3385921816024826,-221.91524134474207zM-29.229698169531666,104.97024279191461L-85.60967616100007,156.60986072401363L-39.57729495377226,72.75323184396301zM30.612068040244658,104.48854345391554L-0.004220652515070311,133.86069955338294L-30.60784738772959,104.48409269035241zM39.57802926928967,72.75282759078621L85.60823543663857,156.61103136237782L29.230404578375747,104.96947640672724zM-40.23337284429938,74.16219410900486L0.00022001071934038552,-221.99108212177444L40.23315283358004,74.16222404818018zM30.70567284617636,105.03915356291132L-30.105386132702044,105.31196512430476L-40.26695354902081,72.98221464611726zM-40.62201560223797,73.46012704132256L40.32516105032214,73.19244926228399L30.04685362307679,105.51408630994429z" style="fill:rgb(207,232,255);fill-opacity:1"></path><path d="M-29.218976431213534,113.01508929049412L34.671924260744085,112.86382083030654L20.188718744252203,153.78775671474588zM20.861692785190453,153.316968019058L-14.646971986384209,153.47324698153312L-28.881387296593083,112.54311867050188z" style="fill:rgb(0,112,255);fill-opacity:1"></path><path d="M99.96822775799548,78.84676286242502L126.61992662494356,78.83467416306964L120.42434557906303,165.31856635210187zM120.96130070156772,164.81982132332575L105.85158387638648,164.83239022152654L100.43711491540634,78.34779521034079zM-126.6984389086712,78.84676286242502L-100.04674004172313,78.83467416306964L-106.24232108760366,165.31856635210187zM-105.70536596509896,164.81982132332575L-120.8150827902802,164.83239022152654L-126.22955175126035,78.34779521034079z" style="fill:rgb(0,185,255);fill-opacity:1"></path><path d="M0.002413817052106665,-295.6573936989982L10.483217775085583,-220.49202304162185L-10.48563159213769,-220.51724722396943z" style="fill:rgb(0,255,16);fill-opacity:1"></path><path d="M39.73599058922335,57.588162460036706L29.6113521126667,129.90700841325997L39.73599058922335,57.588162460036706zM29.566813968285587,128.45143243184197L52.42887176788915,186.51379842538626L29.566813968285587,128.45143243184197zM51.97035552137513,186.074766049204L89.43428769065105,-13.732872186934319L51.97035552137513,186.074766049204zM89.41238940789894,-13.222894709167447L56.696053166496846,82.04995629610136L89.41238940789894,-13.222894709167447zM57.321815565559604,81.50342857039836L39.06470287773345,57.28480994806954L57.321815565559604,81.50342857039836z" style="fill:rgb(124,255,244);fill-opacity:1"></path><path d="M200.30010529670668,111.67639115265116L202.87574481122616,62.991893933399574L66.35300204687843,-93.93177537550041zM66.6992657893132,-94.05405526434213L60.79144875057492,61.50730964235728L200.79777851720394,111.34350164117978z" style="fill:rgb(223,241,255);fill-opacity:1"></path><path d="M212.5000001266599,160.58333434661228L212.5000001266599,160.58333434661228L212.5000001266599,37.24999898672103zM224.33333320667347,160.08333434661228L224.33333320667347,160.08333434661228L211.5000001266599,160.08333434661228zM223.83333320667347,37.74999898672103L223.83333320667347,37.74999898672103L223.83333320667347,161.08333434661228zM212.0000001266599,38.24999898672103L212.0000001266599,38.24999898672103L224.83333320667347,38.24999898672103zM-223.83333320667347,160.58333434661228L-223.83333320667347,160.58333434661228L-223.83333320667347,37.24999898672103zM-212.0000001266599,160.08333434661228L-212.0000001266599,160.08333434661228L-224.83333320667347,160.08333434661228zM-212.5000001266599,37.74999898672103L-212.5000001266599,37.74999898672103L-212.5000001266599,161.08333434661228zM-224.33333320667347,38.24999898672103L-224.33333320667347,38.24999898672103L-211.5000001266599,38.24999898672103z" style="fill:rgb(0,255,16);fill-opacity:1"></path><path d="M-0.22962117719262992,-221.4205811140026L-51.54075967217267,-140.8254882261981L0.7703788228073701,-221.4205811140026zM-51.02628144774379,-142.16597558108955L-39.614107993174756,74.66528179343516L-51.02628144774379,-142.16597558108955zM-39.425128164685496,73.22887512224796L-85.48308071931852,156.70891439561285L-39.425128164685496,73.22887512224796zM-85.36740510636854,156.17247675529995L-29.015195613616964,104.15505459563175L-85.36740510636854,156.17247675529995zM-30.112068041566026,104.48850710329728L0.7241379408101435,133.85632149105635L-30.112068041566026,104.48850710329728zM-0.36206897040507174,133.51149390998168L30.4741370119711,104.14367952222261L-0.36206897040507174,133.51149390998168zM29.38259734238896,104.49419464000185L85.73480683514053,156.51161679967004L29.38259734238896,104.49419464000185zM85.24154204845753,156.27112555327136L39.1835894938245,72.79108627990647L85.24154204845753,156.27112555327136zM39.640387414360625,74.1659728790123L51.05256086892966,-142.66528449551242L39.640387414360625,74.1659728790123zM51.270380849365296,-141.2460774464324L-0.5407576456147403,-221.8411703342369L51.270380849365296,-141.2460774464324z" style="fill:rgb(207,232,255);fill-opacity:1"></path><path d="M45.777558777098,67.83629374320194L72.77936151826923,67.5008629084459L72.69308021127225,77.16284344334711zM73.22244122290199,76.6637062567981L46.220638481730774,76.99913709155413L46.30691978872774,67.33715655665291zM-73.22244122290199,67.83629374320194L-46.220638481730774,67.5008629084459L-46.30691978872774,77.16284344334711zM-45.777558777098,76.6637062567981L-72.77936151826923,76.99913709155413L-72.69308021127225,67.33715655665291zM45.777558777098,53.669627076535264L72.77936151826923,53.33419624177922L72.69308021127225,62.99617677668045zM73.22244122290199,62.49703959013142L46.220638481730774,62.83247042488747L46.30691978872774,53.170489889986236zM-73.22244122290199,53.669627076535264L-46.220638481730774,53.33419624177922L-46.30691978872774,62.99617677668045zM-45.777558777098,62.49703959013142L-72.77936151826923,62.83247042488747L-72.69308021127225,53.170489889986236zM45.777558777098,39.5029604098686L72.77936151826923,39.16752957511255L72.69308021127225,48.829510110013786zM73.22244122290199,48.33037292346476L46.220638481730774,48.665803758220804L46.30691978872774,39.00382322331957zM-73.22244122290199,39.5029604098686L-46.220638481730774,39.16752957511255L-46.30691978872774,48.829510110013786zM-45.777558777098,48.33037292346476L-72.77936151826923,48.665803758220804L-72.69308021127225,39.00382322331957zM45.777558777098,25.336293743201917L72.77936151826923,25.00086290844587L72.69308021127225,34.66284344334711zM73.22244122290199,34.16370625679808L46.220638481730774,34.499137091554125L46.30691978872774,24.83715655665289zM-73.22244122290199,25.336293743201917L-46.220638481730774,25.00086290844587L-46.30691978872774,34.66284344334711zM-45.777558777098,34.16370625679808L-72.77936151826923,34.499137091554125L-72.69308021127225,24.83715655665289zM45.777558777098,11.169627076535258L72.77936151826923,10.834196241779214L72.69308021127225,20.496176776680443zM73.22244122290199,19.997039590131415L46.220638481730774,20.33247042488746L46.30691978872774,10.670489889986232zM-73.22244122290199,11.169627076535258L-46.220638481730774,10.834196241779214L-46.30691978872774,20.496176776680443zM-45.777558777098,19.997039590131415L-72.77936151826923,20.33247042488746L-72.69308021127225,10.670489889986232zM45.777558777098,-2.9970395901314077L72.77936151826923,-3.3324704248874526L72.69308021127225,6.3295101100137785zM73.22244122290199,5.8303729234647514L46.220638481730774,6.165803758220797L46.30691978872774,-3.496176776680435zM-73.22244122290199,-2.9970395901314077L-46.220638481730774,-3.3324704248874526L-46.30691978872774,6.3295101100137785zM-45.777558777098,5.8303729234647514L-72.77936151826923,6.165803758220797L-72.69308021127225,-3.496176776680435zM45.777558777098,-17.16370625679809L72.77936151826923,-17.499137091554136L72.69308021127225,-7.837156556652902zM73.22244122290199,-8.336293743201928L46.220638481730774,-8.000862908445884L46.30691978872774,-17.662843443347118zM-73.22244122290199,-17.16370625679809L-46.220638481730774,-17.499137091554136L-46.30691978872774,-7.837156556652902zM-45.777558777098,-8.336293743201928L-72.77936151826923,-8.000862908445884L-72.69308021127225,-17.662843443347118zM45.777558777098,-31.33037292346475L72.77936151826923,-31.665803758220797L72.69308021127225,-22.003823223319564zM73.22244122290199,-22.502960409868592L46.220638481730774,-22.167529575112546L46.30691978872774,-31.82951011001378zM-73.22244122290199,-31.33037292346475L-46.220638481730774,-31.665803758220797L-46.30691978872774,-22.003823223319564zM-45.777558777098,-22.502960409868592L-72.77936151826923,-22.167529575112546L-72.69308021127225,-31.82951011001378z" style="fill:rgb(32,48,255);fill-opacity:1"></path><path d="M93.78436114826108,-92.6064055664142L111.501708811121,-89.16477167187938L75.62808859320496,93.00155383581063zM76.21563885173893,92.6064055664142L58.498291188879016,89.16477167187938L94.37191140679505,-93.00155383581063zM-111.54625228837536,-89.15384367572828L-93.82975484060862,-92.59985154773511L-58.850489677991106,89.74031897208272zM-58.453747711624665,89.15384367572828L-76.1702451593914,92.59985154773511L-111.14951032200892,-89.74031897208272z" style="fill:rgb(0,255,16);fill-opacity:1"></path><path d="M-28.50000738800854,112.86193148437395L-13.974984793339365,153.94280386679858L-28.50000738800854,112.86193148437395zM-14.808333240449427,153.00000016887984L20.974999907116096,153.00000016887984L-14.808333240449427,153.00000016887984zM19.808325683561065,153.4714020178392L34.333348278230226,112.39052963541457L19.808325683561065,153.4714020178392zM34.49999983112017,113.33333333333334L-29.33333316445351,113.33333333333334L34.49999983112017,113.33333333333334z" style="fill:rgb(0,112,255);fill-opacity:1"></path><path d="M100.54965944981991,78.83446851828832L106.3881801250792,165.3310663410199L100.54965944981991,78.83446851828832zM105.8208333713313,164.33333671092987L121.34583329533538,164.33333671092987L105.8208333713313,164.33333671092987zM120.31215991846143,164.83220152597488L126.15068059372072,78.3356037032433L120.31215991846143,164.83220152597488zM126.58333383997282,79.33333333333334L99.58333282669386,79.33333333333334L126.58333383997282,79.33333333333334zM-126.11700721684677,78.83446851828832L-120.27848654158748,165.3310663410199L-126.11700721684677,78.83446851828832zM-120.84583329533538,164.33333671092987L-105.3208333713313,164.33333671092987L-120.84583329533538,164.33333671092987zM-106.35450674820525,164.83220152597488L-100.51598607294596,78.3356037032433L-106.35450674820525,164.83220152597488zM-100.08333282669386,79.33333333333334L-127.08333383997282,79.33333333333334L-100.08333282669386,79.33333333333334z" style="fill:rgb(0,185,255);fill-opacity:1"></path><path d="M0.5667060087529263,-295.16219429503985L-10.050078726392478,-220.00893933909924L-0.4332939912470737,-295.16219429503985zM-10.416666708886623,-221L10.916666708886623,-221L-10.416666708886623,-221zM9.98337271763955,-220.50446966954962L-0.13341201750585263,-295.65772462549023L9.98337271763955,-220.50446966954962zM102.116093160321,-93.0434959762769L114.28487829982345,-90.89830838003726L67.303754616184,172.78224523093513zM67.883906839679,172.3768293096102L55.715121700176574,170.23164171337064L102.696245383816,-93.4489118976018zM-114.30568240847457,-90.89414250807361L-102.13706743982858,-93.04029519119766L-56.10082194335818,170.80686593765557zM-55.69431759152544,170.22747584140697L-67.86293256017142,172.37362852453097L-113.89917805664183,-91.47353260432222z" style="fill:rgb(0,255,16);fill-opacity:1"></path><path d="M29.680676035223374,129.41183753996333L29.680676035223374,129.41183753996333L39.805314511780026,57.09299158674007zM52.24568577839469,186.04856419056154L52.24568577839469,186.04856419056154L29.383627978791125,127.98619819701726zM89.34214342312596,-13.241436093467158L89.34214342312596,-13.241436093467158L51.87821125385004,186.56620214267116zM56.85844341879492,81.57706158693391L56.85844341879492,81.57706158693391L89.57477966019701,-13.695789418334897zM39.36568477220006,57.68407164070144L39.36568477220006,57.68407164070144L57.62279746002621,81.90269026303025z" style="fill:rgb(124,255,244);fill-opacity:1"></path><path d="M46.74999949336051,67.50000009499492L46.74999949336051,77.49999990500511L46.74999949336051,67.50000009499492zM46.24999949336051,76.49999990500511L73.25000050663948,76.49999990500511L46.24999949336051,76.49999990500511zM72.25000050663948,76.99999990500511L72.25000050663948,67.00000009499492L72.25000050663948,76.99999990500511zM72.75000050663948,68.00000009499492L45.74999949336051,68.00000009499492L72.75000050663948,68.00000009499492zM-72.25000050663948,67.50000009499492L-72.25000050663948,77.49999990500511L-72.25000050663948,67.50000009499492zM-72.75000050663948,76.49999990500511L-45.74999949336051,76.49999990500511L-72.75000050663948,76.49999990500511zM-46.74999949336051,76.99999990500511L-46.74999949336051,67.00000009499492L-46.74999949336051,76.99999990500511zM-46.24999949336051,68.00000009499492L-73.25000050663948,68.00000009499492L-46.24999949336051,68.00000009499492zM46.74999949336051,53.333333428328245L46.74999949336051,63.33333323833844L46.74999949336051,53.333333428328245zM46.24999949336051,62.33333323833844L73.25000050663948,62.33333323833844L46.24999949336051,62.33333323833844zM72.25000050663948,62.83333323833844L72.25000050663948,52.833333428328245L72.25000050663948,62.83333323833844zM72.75000050663948,53.833333428328245L45.74999949336051,53.833333428328245L72.75000050663948,53.833333428328245zM-72.25000050663948,53.333333428328245L-72.25000050663948,63.33333323833844L-72.25000050663948,53.333333428328245zM-72.75000050663948,62.33333323833844L-45.74999949336051,62.33333323833844L-72.75000050663948,62.33333323833844zM-46.74999949336051,62.83333323833844L-46.74999949336051,52.833333428328245L-46.74999949336051,62.83333323833844zM-46.24999949336051,53.833333428328245L-73.25000050663948,53.833333428328245L-46.24999949336051,53.833333428328245zM46.74999949336051,39.16666676166158L46.74999949336051,49.166666571671776L46.74999949336051,39.16666676166158zM46.24999949336051,48.166666571671776L73.25000050663948,48.166666571671776L46.24999949336051,48.166666571671776zM72.25000050663948,48.666666571671776L72.25000050663948,38.66666676166158L72.25000050663948,48.666666571671776zM72.75000050663948,39.66666676166158L45.74999949336051,39.66666676166158L72.75000050663948,39.66666676166158zM-72.25000050663948,39.16666676166158L-72.25000050663948,49.166666571671776L-72.25000050663948,39.16666676166158zM-72.75000050663948,48.166666571671776L-45.74999949336051,48.166666571671776L-72.75000050663948,48.166666571671776zM-46.74999949336051,48.666666571671776L-46.74999949336051,38.66666676166158L-46.74999949336051,48.666666571671776zM-46.24999949336051,39.66666676166158L-73.25000050663948,39.66666676166158L-46.24999949336051,39.66666676166158zM46.74999949336051,25.0000000949949L46.74999949336051,34.9999999050051L46.74999949336051,25.0000000949949zM46.24999949336051,33.9999999050051L73.25000050663948,33.9999999050051L46.24999949336051,33.9999999050051zM72.25000050663948,34.4999999050051L72.25000050663948,24.5000000949949L72.25000050663948,34.4999999050051zM72.75000050663948,25.5000000949949L45.74999949336051,25.5000000949949L72.75000050663948,25.5000000949949zM-72.25000050663948,25.0000000949949L-72.25000050663948,34.9999999050051L-72.25000050663948,25.0000000949949zM-72.75000050663948,33.9999999050051L-45.74999949336051,33.9999999050051L-72.75000050663948,33.9999999050051zM-46.74999949336051,34.4999999050051L-46.74999949336051,24.5000000949949L-46.74999949336051,34.4999999050051zM-46.24999949336051,25.5000000949949L-73.25000050663948,25.5000000949949L-46.24999949336051,25.5000000949949zM46.74999949336051,10.83333342832824L46.74999949336051,20.833333238338433L46.74999949336051,10.83333342832824zM46.24999949336051,19.833333238338433L73.25000050663948,19.833333238338433L46.24999949336051,19.833333238338433zM72.25000050663948,20.333333238338433L72.25000050663948,10.33333342832824L72.25000050663948,20.333333238338433zM72.75000050663948,11.33333342832824L45.74999949336051,11.33333342832824L72.75000050663948,11.33333342832824zM-72.25000050663948,10.83333342832824L-72.25000050663948,20.833333238338433L-72.25000050663948,10.83333342832824zM-72.75000050663948,19.833333238338433L-45.74999949336051,19.833333238338433L-72.75000050663948,19.833333238338433zM-46.74999949336051,20.333333238338433L-46.74999949336051,10.33333342832824L-46.74999949336051,20.333333238338433zM-46.24999949336051,11.33333342832824L-73.25000050663948,11.33333342832824L-46.24999949336051,11.33333342832824zM46.74999949336051,-3.3333332383384255L46.74999949336051,6.66666657167177L46.74999949336051,-3.3333332383384255zM46.24999949336051,5.66666657167177L73.25000050663948,5.66666657167177L46.24999949336051,5.66666657167177zM72.25000050663948,6.16666657167177L72.25000050663948,-3.8333332383384255L72.25000050663948,6.16666657167177zM72.75000050663948,-2.8333332383384255L45.74999949336051,-2.8333332383384255L72.75000050663948,-2.8333332383384255zM-72.25000050663948,-3.3333332383384255L-72.25000050663948,6.66666657167177L-72.25000050663948,-3.3333332383384255zM-72.75000050663948,5.66666657167177L-45.74999949336051,5.66666657167177L-72.75000050663948,5.66666657167177zM-46.74999949336051,6.16666657167177L-46.74999949336051,-3.8333332383384255L-46.74999949336051,6.16666657167177zM-46.24999949336051,-2.8333332383384255L-73.25000050663948,-2.8333332383384255L-46.24999949336051,-2.8333332383384255zM46.74999949336051,-17.499999905005108L46.74999949336051,-7.50000009499491L46.74999949336051,-17.499999905005108zM46.24999949336051,-8.50000009499491L73.25000050663948,-8.50000009499491L46.24999949336051,-8.50000009499491zM72.25000050663948,-8.00000009499491L72.25000050663948,-17.999999905005108L72.25000050663948,-8.00000009499491zM72.75000050663948,-16.999999905005108L45.74999949336051,-16.999999905005108L72.75000050663948,-16.999999905005108zM-72.25000050663948,-17.499999905005108L-72.25000050663948,-7.50000009499491L-72.25000050663948,-17.499999905005108zM-72.75000050663948,-8.50000009499491L-45.74999949336051,-8.50000009499491L-72.75000050663948,-8.50000009499491zM-46.74999949336051,-8.00000009499491L-46.74999949336051,-17.999999905005108L-46.74999949336051,-8.00000009499491zM-46.24999949336051,-16.999999905005108L-73.25000050663948,-16.999999905005108L-46.24999949336051,-16.999999905005108zM46.74999949336051,-31.66666657167177L46.74999949336051,-21.666666761661574L46.74999949336051,-31.66666657167177zM46.24999949336051,-22.666666761661574L73.25000050663948,-22.666666761661574L46.24999949336051,-22.666666761661574zM72.25000050663948,-22.166666761661574L72.25000050663948,-32.16666657167177L72.25000050663948,-22.166666761661574zM72.75000050663948,-31.16666657167177L45.74999949336051,-31.16666657167177L72.75000050663948,-31.16666657167177zM-72.25000050663948,-31.66666657167177L-72.25000050663948,-21.666666761661574L-72.25000050663948,-31.66666657167177zM-72.75000050663948,-22.666666761661574L-45.74999949336051,-22.666666761661574L-72.75000050663948,-22.666666761661574zM-46.74999949336051,-22.166666761661574L-46.74999949336051,-32.16666657167177L-46.74999949336051,-22.166666761661574zM-46.24999949336051,-31.16666657167177L-73.25000050663948,-31.16666657167177L-46.24999949336051,-31.16666657167177z" style="fill:rgb(32,48,255);fill-opacity:1"></path><path d="M94.32190130466333,-92.50418984310451L58.89503245203644,89.75125058593062L94.32190130466333,-92.50418984310451zM58.595027855689146,88.67421890479467L76.75513037647264,92.20418524675723L58.595027855689146,88.67421890479467zM75.67809869533669,92.50418984310451L111.1049675479636,-89.75125058593062L75.67809869533669,92.50418984310451zM111.40497214431088,-88.67421890479467L93.24486962352738,-92.20418524675723L111.40497214431088,-88.67421890479467zM-111.00956305027532,-89.26043699420678L-75.58269419764841,92.99500343482835L-111.00956305027532,-89.26043699420678zM-76.2643167847488,92.10878074906896L-58.10421426396531,88.57881440710639L-76.2643167847488,92.10878074906896zM-58.99043694972471,89.26043699420678L-94.4173058023516,-92.99500343482835L-58.99043694972471,89.26043699420678zM-93.73568321525121,-92.10878074906896L-111.89578573603471,-88.57881440710639L-93.73568321525121,-92.10878074906896zM102.63039588049479,-92.95330897145516L56.12162574600464,170.8110335450579L102.63039588049479,-92.95330897145516zM55.80287004716547,169.73940170321225L68.44123596135088,171.96788660594927L55.80287004716547,169.73940170321225zM67.36960411950521,172.28664230478847L113.87837425399537,-91.47770021172457L67.36960411950521,172.28664230478847zM114.19712995283454,-90.4060683698789L101.55876403864912,-92.63455327261599L114.19712995283454,-90.4060683698789zM-113.79155016516191,-90.98529633521846L-67.28278003067174,172.77904618129458L-113.79155016516191,-90.98529633521846zM-67.94883208484478,171.88106251711582L-55.31046617065937,169.6525776143788L-67.94883208484478,171.88106251711582zM-56.208449834838106,170.3186296685518L-102.71721996932826,-93.44571284796126L-56.208449834838106,170.3186296685518zM-102.05116791515522,-92.54772918378252L-114.68953382934065,-90.31924428104543L-102.05116791515522,-92.54772918378252zM223.8814802676773,161.08101080829869L224.33284732412056,37.72796159869403L211.952338948209,37.77435991306164zM212.45185306565608,37.252322525034636L212.0004860092128,160.60537173463928L224.38099438512438,160.55897342027168zM-212.45185306565608,161.08101080829869L-212.0004860092128,37.72796159869403L-224.38099438512438,37.77435991306164zM-223.8814802676773,37.252322525034636L-224.33284732412056,160.60537173463928L-211.952338948209,160.55897342027168z" style="fill:rgb(0,255,16);fill-opacity:1"></path><path d="M-51.270380849365296,-141.2460774464324L-51.270380849365296,-141.2460774464324L0.5407576456147403,-221.8411703342369zM-39.640387414360625,74.1659728790123L-39.640387414360625,74.1659728790123L-51.05256086892966,-142.66528449551242zM-85.24154204845753,156.27112555327136L-85.24154204845753,156.27112555327136L-39.1835894938245,72.79108627990647zM-29.38259734238896,104.49419464000185L-29.38259734238896,104.49419464000185L-85.73480683514053,156.51161679967004zM0.36206897040507174,133.51149390998168L0.36206897040507174,133.51149390998168L-30.4741370119711,104.14367952222261zM30.112068041566026,104.48850710329728L30.112068041566026,104.48850710329728L-0.7241379408101435,133.85632149105635zM85.36740510636854,156.17247675529995L85.36740510636854,156.17247675529995L29.015195613616964,104.15505459563175zM39.425128164685496,73.22887512224796L39.425128164685496,73.22887512224796L85.48308071931852,156.70891439561285zM51.02628144774379,-142.16597558108955L51.02628144774379,-142.16597558108955L39.614107993174756,74.66528179343516zM-0.27037882280737013,-221.4205811140026L-0.2703788228073701,-221.4205811140026L51.54075967217267,-140.8254882261981z" style="fill:rgb(207,232,255);fill-opacity:1"></path><path d="M-0.5033065176189486,-176.49726858429966L17.24988366335065,-158.80224855267562L42.753424163086954,-38.7004850584625zM-42.75453998640916,-38.70072493467651L-17.252830287697194,-158.8061037298639L0.5073689652876987,-176.49317353089734zM26.4612557713096,-11.140345908952668L-25.748381618212953,-10.901259382565328L-43.21287584189491,-40.29172770405569zM-0.22506685525362527,-176.63810911136272L42.911264690786936,-39.61520874227098L25.313804866543922,-10.413350079631691zM26.03881300777186,-10.647032677895135L-43.11234489212018,-39.382258748540096L0.07353120882901334,-176.63737650683012z" style="fill:rgb(0,112,255);fill-opacity:1"></path><path d="M46.74999949336051,76.99999990500511L46.74999949336051,76.99999990500511L46.74999949336051,67.00000009499492zM72.75000050663948,76.49999990500511L72.75000050663948,76.49999990500511L45.74999949336051,76.49999990500511zM72.25000050663948,67.50000009499492L72.25000050663948,67.50000009499492L72.25000050663948,77.49999990500511zM46.24999949336051,68.00000009499492L46.24999949336051,68.00000009499492L73.25000050663948,68.00000009499492zM-72.25000050663948,76.99999990500511L-72.25000050663948,76.99999990500511L-72.25000050663948,67.00000009499492zM-46.24999949336051,76.49999990500511L-46.24999949336051,76.49999990500511L-73.25000050663948,76.49999990500511zM-46.74999949336051,67.50000009499492L-46.74999949336051,67.50000009499492L-46.74999949336051,77.49999990500511zM-72.75000050663948,68.00000009499492L-72.75000050663948,68.00000009499492L-45.74999949336051,68.00000009499492zM46.74999949336051,62.83333323833844L46.74999949336051,62.83333323833844L46.74999949336051,52.833333428328245zM72.75000050663948,62.33333323833844L72.75000050663948,62.33333323833844L45.74999949336051,62.33333323833844zM72.25000050663948,53.333333428328245L72.25000050663948,53.333333428328245L72.25000050663948,63.33333323833844zM46.24999949336051,53.833333428328245L46.24999949336051,53.833333428328245L73.25000050663948,53.833333428328245zM-72.25000050663948,62.83333323833844L-72.25000050663948,62.83333323833844L-72.25000050663948,52.833333428328245zM-46.24999949336051,62.33333323833844L-46.24999949336051,62.33333323833844L-73.25000050663948,62.33333323833844zM-46.74999949336051,53.333333428328245L-46.74999949336051,53.333333428328245L-46.74999949336051,63.33333323833844zM-72.75000050663948,53.833333428328245L-72.75000050663948,53.833333428328245L-45.74999949336051,53.833333428328245zM46.74999949336051,48.666666571671776L46.74999949336051,48.666666571671776L46.74999949336051,38.66666676166158zM72.75000050663948,48.166666571671776L72.75000050663948,48.166666571671776L45.74999949336051,48.166666571671776zM72.25000050663948,39.16666676166158L72.25000050663948,39.16666676166158L72.25000050663948,49.166666571671776zM46.24999949336051,39.66666676166158L46.24999949336051,39.66666676166158L73.25000050663948,39.66666676166158zM-72.25000050663948,48.666666571671776L-72.25000050663948,48.666666571671776L-72.25000050663948,38.66666676166158zM-46.24999949336051,48.166666571671776L-46.24999949336051,48.166666571671776L-73.25000050663948,48.166666571671776zM-46.74999949336051,39.16666676166158L-46.74999949336051,39.16666676166158L-46.74999949336051,49.166666571671776zM-72.75000050663948,39.66666676166158L-72.75000050663948,39.66666676166158L-45.74999949336051,39.66666676166158zM46.74999949336051,34.4999999050051L46.74999949336051,34.4999999050051L46.74999949336051,24.5000000949949zM72.75000050663948,33.9999999050051L72.75000050663948,33.9999999050051L45.74999949336051,33.9999999050051zM72.25000050663948,25.0000000949949L72.25000050663948,25.0000000949949L72.25000050663948,34.9999999050051zM46.24999949336051,25.5000000949949L46.24999949336051,25.5000000949949L73.25000050663948,25.5000000949949zM-72.25000050663948,34.4999999050051L-72.25000050663948,34.4999999050051L-72.25000050663948,24.5000000949949zM-46.24999949336051,33.9999999050051L-46.24999949336051,33.9999999050051L-73.25000050663948,33.9999999050051zM-46.74999949336051,25.0000000949949L-46.74999949336051,25.0000000949949L-46.74999949336051,34.9999999050051zM-72.75000050663948,25.5000000949949L-72.75000050663948,25.5000000949949L-45.74999949336051,25.5000000949949zM46.74999949336051,20.333333238338433L46.74999949336051,20.333333238338433L46.74999949336051,10.33333342832824zM72.75000050663948,19.833333238338433L72.75000050663948,19.833333238338433L45.74999949336051,19.833333238338433zM72.25000050663948,10.83333342832824L72.25000050663948,10.83333342832824L72.25000050663948,20.833333238338433zM46.24999949336051,11.33333342832824L46.24999949336051,11.33333342832824L73.25000050663948,11.33333342832824zM-72.25000050663948,20.333333238338433L-72.25000050663948,20.333333238338433L-72.25000050663948,10.33333342832824zM-46.24999949336051,19.833333238338433L-46.24999949336051,19.833333238338433L-73.25000050663948,19.833333238338433zM-46.74999949336051,10.83333342832824L-46.74999949336051,10.83333342832824L-46.74999949336051,20.833333238338433zM-72.75000050663948,11.33333342832824L-72.75000050663948,11.33333342832824L-45.74999949336051,11.33333342832824zM46.74999949336051,6.16666657167177L46.74999949336051,6.16666657167177L46.74999949336051,-3.8333332383384255zM72.75000050663948,5.66666657167177L72.75000050663948,5.66666657167177L45.74999949336051,5.66666657167177zM72.25000050663948,-3.3333332383384255L72.25000050663948,-3.3333332383384255L72.25000050663948,6.66666657167177zM46.24999949336051,-2.8333332383384255L46.24999949336051,-2.8333332383384255L73.25000050663948,-2.8333332383384255zM-72.25000050663948,6.16666657167177L-72.25000050663948,6.16666657167177L-72.25000050663948,-3.8333332383384255zM-46.24999949336051,5.66666657167177L-46.24999949336051,5.66666657167177L-73.25000050663948,5.66666657167177zM-46.74999949336051,-3.3333332383384255L-46.74999949336051,-3.3333332383384255L-46.74999949336051,6.66666657167177zM-72.75000050663948,-2.8333332383384255L-72.75000050663948,-2.8333332383384255L-45.74999949336051,-2.8333332383384255zM46.74999949336051,-8.00000009499491L46.74999949336051,-8.00000009499491L46.74999949336051,-17.999999905005108zM72.75000050663948,-8.50000009499491L72.75000050663948,-8.50000009499491L45.74999949336051,-8.50000009499491zM72.25000050663948,-17.499999905005108L72.25000050663948,-17.499999905005108L72.25000050663948,-7.50000009499491zM46.24999949336051,-16.999999905005108L46.24999949336051,-16.999999905005108L73.25000050663948,-16.999999905005108zM-72.25000050663948,-8.00000009499491L-72.25000050663948,-8.00000009499491L-72.25000050663948,-17.999999905005108zM-46.24999949336051,-8.50000009499491L-46.24999949336051,-8.50000009499491L-73.25000050663948,-8.50000009499491zM-46.74999949336051,-17.499999905005108L-46.74999949336051,-17.499999905005108L-46.74999949336051,-7.50000009499491zM-72.75000050663948,-16.999999905005108L-72.75000050663948,-16.999999905005108L-45.74999949336051,-16.999999905005108zM46.74999949336051,-22.166666761661574L46.74999949336051,-22.166666761661574L46.74999949336051,-32.16666657167177zM72.75000050663948,-22.666666761661574L72.75000050663948,-22.666666761661574L45.74999949336051,-22.666666761661574zM72.25000050663948,-31.66666657167177L72.25000050663948,-31.66666657167177L72.25000050663948,-21.666666761661574zM46.24999949336051,-31.16666657167177L46.24999949336051,-31.16666657167177L73.25000050663948,-31.16666657167177zM-72.25000050663948,-22.166666761661574L-72.25000050663948,-22.166666761661574L-72.25000050663948,-32.16666657167177zM-46.24999949336051,-22.666666761661574L-46.24999949336051,-22.666666761661574L-73.25000050663948,-22.666666761661574zM-46.74999949336051,-31.66666657167177L-46.74999949336051,-31.66666657167177L-46.74999949336051,-21.666666761661574zM-72.75000050663948,-31.16666657167177L-72.75000050663948,-31.16666657167177L-45.74999949336051,-31.16666657167177z" style="fill:rgb(32,48,255);fill-opacity:1"></path><path d="M58.99043694972471,89.26043699420678L58.99043694972471,89.26043699420678L94.4173058023516,-92.99500343482835zM76.2643167847488,92.10878074906896L76.2643167847488,92.10878074906896L58.10421426396531,88.57881440710639zM111.00956305027532,-89.26043699420678L111.00956305027532,-89.26043699420678L75.58269419764841,92.99500343482835zM93.73568321525121,-92.10878074906896L93.73568321525121,-92.10878074906896L111.89578573603471,-88.57881440710639zM-75.67809869533669,92.50418984310451L-75.67809869533669,92.50418984310451L-111.1049675479636,-89.75125058593062zM-58.595027855689146,88.67421890479467L-58.595027855689146,88.67421890479467L-76.75513037647264,92.20418524675723zM-94.32190130466333,-92.50418984310451L-94.32190130466333,-92.50418984310451L-58.89503245203644,89.75125058593062zM-111.40497214431088,-88.67421890479467L-111.40497214431088,-88.67421890479467L-93.24486962352738,-92.20418524675723z" style="fill:rgb(0,255,16);fill-opacity:1"></path><path d="M-14.141659016894396,153.4714020178392L-14.141659016894396,153.4714020178392L-28.666681611563572,112.39052963541457zM20.474999907116096,153.00000016887984L20.474999907116096,153.00000016887984L-15.308333240449427,153.00000016887984zM34.1666740546752,112.86193148437395L34.1666740546752,112.86193148437395L19.641651460006035,153.94280386679858zM-28.83333316445351,113.33333333333334L-28.83333316445351,113.33333333333334L34.99999983112017,113.33333333333334z" style="fill:rgb(0,112,255);fill-opacity:1"></path><path d="M106.35450674820525,164.83220152597488L106.35450674820525,164.83220152597488L100.51598607294596,78.3356037032433zM120.84583329533538,164.33333671092987L120.84583329533538,164.33333671092987L105.3208333713313,164.33333671092987zM126.11700721684677,78.83446851828832L126.11700721684677,78.83446851828832L120.27848654158748,165.3310663410199zM100.08333282669386,79.33333333333334L100.08333282669386,79.33333333333334L127.08333383997282,79.33333333333334zM-120.31215991846143,164.83220152597488L-120.31215991846143,164.83220152597488L-126.15068059372072,78.3356037032433zM-105.8208333713313,164.33333671092987L-105.8208333713313,164.33333671092987L-121.34583329533538,164.33333671092987zM-100.54965944981991,78.83446851828832L-100.54965944981991,78.83446851828832L-106.3881801250792,165.3310663410199zM-126.58333383997282,79.33333333333334L-126.58333383997282,79.33333333333334L-99.58333282669386,79.33333333333334z" style="fill:rgb(0,185,255);fill-opacity:1"></path><path d="M-9.98337271763955,-220.50446966954962L-9.98337271763955,-220.50446966954962L0.13341201750585263,-295.65772462549023zM10.416666708886623,-221L10.416666708886623,-221L-10.916666708886623,-221zM-0.06670600875292632,-295.16219429503985L-0.06670600875292633,-295.16219429503985L10.050078726392478,-220.00893933909924zM56.208449834838106,170.3186296685518L56.208449834838106,170.3186296685518L102.71721996932826,-93.44571284796126zM67.94883208484478,171.88106251711582L67.94883208484478,171.88106251711582L55.31046617065937,169.6525776143788zM113.79155016516191,-90.98529633521846L113.79155016516191,-90.98529633521846L67.28278003067174,172.77904618129458zM102.05116791515522,-92.54772918378252L102.05116791515522,-92.54772918378252L114.68953382934065,-90.31924428104543zM-67.36960411950521,172.28664230478847L-67.36960411950521,172.28664230478847L-113.87837425399537,-91.47770021172457zM-55.80287004716547,169.73940170321225L-55.80287004716547,169.73940170321225L-68.44123596135088,171.96788660594927zM-102.63039588049479,-92.95330897145516L-102.63039588049479,-92.95330897145516L-56.12162574600464,170.8110335450579zM-114.19712995283454,-90.4060683698789L-114.19712995283454,-90.4060683698789L-101.55876403864912,-92.63455327261599z" style="fill:rgb(0,255,16);fill-opacity:1"></path><path d="M57.57167030812421,81.07033203656557L39.43257307217478,57.18856588359412L29.433256915240715,129.84526895760678zM51.94699090820983,186.57421984571738L89.5041900409614,-13.714448665866767L56.88215166642286,81.07772565365268zM57.29234818356293,80.17041382681217L29.316103119413626,128.88693944758035L52.22488211479671,186.54681022577742z" style="fill:rgb(124,255,244);fill-opacity:1"></path><path d="M72.72254840233013,77.16339661941008L72.74990441747548,67.49019805791704L45.77754768683386,67.84640541766782zM46.27745159766986,67.33660338058995L46.250095582524516,77.00980194208299L73.22245231316613,76.6535945823322zM-46.27745159766986,77.16339661941008L-46.250095582524516,67.49019805791704L-73.22245231316613,67.84640541766782zM-72.72254840233013,67.33660338058995L-72.74990441747548,77.00980194208299L-45.77754768683386,76.6535945823322zM72.72254840233013,62.99672995274341L72.74990441747548,53.32353139125037L45.77754768683386,53.67973875100115zM46.27745159766986,53.16993671392328L46.250095582524516,62.843135275416316L73.22245231316613,62.48692791566553zM-46.27745159766986,62.99672995274341L-46.250095582524516,53.32353139125037L-73.22245231316613,53.67973875100115zM-72.72254840233013,53.16993671392328L-72.74990441747548,62.843135275416316L-45.77754768683386,62.48692791566553zM72.72254840233013,48.830063286076744L72.74990441747548,39.156864724583706L45.77754768683386,39.51307208433449zM46.27745159766986,39.00327004725661L46.250095582524516,48.67646860874965L73.22245231316613,48.32026124899887zM-46.27745159766986,48.830063286076744L-46.250095582524516,39.156864724583706L-73.22245231316613,39.51307208433449zM-72.72254840233013,39.00327004725661L-72.74990441747548,48.67646860874965L-45.77754768683386,48.32026124899887zM72.72254840233013,34.663396619410065L72.74990441747548,24.990198057917024L45.77754768683386,25.346405417667807zM46.27745159766986,24.83660338058993L46.250095582524516,34.50980194208297L73.22245231316613,34.15359458233219zM-46.27745159766986,34.663396619410065L-46.250095582524516,24.990198057917024L-73.22245231316613,25.346405417667807zM-72.72254840233013,24.83660338058993L-72.74990441747548,34.50980194208297L-45.77754768683386,34.15359458233219zM72.72254840233013,20.4967299527434L72.74990441747548,10.823531391250366L45.77754768683386,11.179738751001146zM46.27745159766986,10.669936713923272L46.250095582524516,20.34313527541631L73.22245231316613,19.986927915665525zM-46.27745159766986,20.4967299527434L-46.250095582524516,10.823531391250366L-73.22245231316613,11.179738751001146zM-72.72254840233013,10.669936713923272L-72.74990441747548,20.34313527541631L-45.77754768683386,19.986927915665525zM72.72254840233013,6.330063286076737L72.74990441747548,-3.3431352754163L45.77754768683386,-2.986927915665519zM46.27745159766986,-3.4967299527433937L46.250095582524516,6.176468608749644L73.22245231316613,5.820261248998863zM-46.27745159766986,6.330063286076737L-46.250095582524516,-3.3431352754163L-73.22245231316613,-2.986927915665519zM-72.72254840233013,-3.4967299527433937L-72.74990441747548,6.176468608749644L-45.77754768683386,5.820261248998863zM72.72254840233013,-7.836603380589942L72.74990441747548,-17.509801942082984L45.77754768683386,-17.1535945823322zM46.27745159766986,-17.663396619410076L46.250095582524516,-7.990198057917035L73.22245231316613,-8.346405417667816zM-46.27745159766986,-7.836603380589942L-46.250095582524516,-17.509801942082984L-73.22245231316613,-17.1535945823322zM-72.72254840233013,-17.663396619410076L-72.74990441747548,-7.990198057917035L-45.77754768683386,-8.346405417667816zM72.72254840233013,-22.003270047256606L72.74990441747548,-31.676468608749644L45.77754768683386,-31.32026124899886zM46.27745159766986,-31.830063286076737L46.250095582524516,-22.1568647245837L73.22245231316613,-22.513072084334482zM-46.27745159766986,-22.003270047256606L-46.250095582524516,-31.676468608749644L-73.22245231316613,-31.32026124899886zM-72.72254840233013,-31.830063286076737L-72.74990441747548,-22.1568647245837L-45.77754768683386,-22.513072084334482z" style="fill:rgb(32,48,255);fill-opacity:1"></path><path d="M75.62942753067668,93.00181532248699L111.50296929181904,-89.17950318912081L93.78176173009133,-92.59193553584913zM94.37057246932333,-93.00181532248699L58.497030708180986,89.17950318912081L76.21823826990868,92.59193553584913zM-58.849150282152,89.74005984350214L-93.83410466674606,-92.61398255705498L-111.54324185807702,-89.13945353782783zM-111.15084971784803,-89.74005984350214L-76.16589533325396,92.61398255705498L-58.456758141923004,89.13945353782783zM67.30468152617931,172.7824094445586L114.28730229303429,-90.92025920959L102.11274225711485,-93.02170936034763zM102.69531847382069,-93.44907611122527L55.71269770696573,170.25359254292334L67.88725774288515,172.35504269368096zM-56.099894768508406,170.80670322609632L-102.14229725716527,-93.06175127825388L-114.30137976598766,-90.87252370945815zM-113.90010523149161,-91.47336989276297L-67.85770274283473,172.3950846115872L-55.69862023401235,170.20585704279148z" style="fill:rgb(0,255,16);fill-opacity:1"></path><path d="M39.70729377690127,74.66147619751943L51.29796726680563,-141.74622944862293L-0.3385921816024826,-221.91524134474207zM0.3372817385839181,-221.916084897904L-51.29733792320393,-141.74535023376419L-39.7066126774844,74.66144053582262zM-39.57802926928967,72.75282759078621L-85.60823543663857,156.61103136237782L-29.230404578375747,104.96947640672724zM-30.612068040244658,104.48854345391554L0.004220652515070311,133.86069955338294L30.60784738772959,104.48409269035241zM29.229698169531666,104.97024279191461L85.60967616100007,156.60986072401363L39.57729495377226,72.75323184396301zM40.23337284429938,74.16219410900486L-0.00022001071934038552,-221.99108212177444L-40.23315283358004,74.16222404818018zM-40.273965199500616,72.9844325988094L-30.0983811328249,105.31381156352705L30.705679496779023,105.03508917099688zM30.05375551643262,105.51631354266661L40.31825967861568,73.18720393768771L-40.62201612388735,73.46314513319652z" style="fill:rgb(207,232,255);fill-opacity:1"></path><path d="M-0.1464466203824682,-176.0202214192743L-17.707106379255453,-157.95956053904797L0.8535533796175319,-176.0202214192743zM-16.895235067955152,-159.15556854757472L-42.70953079292874,-38.688864424768994L-16.895235067955152,-159.15556854757472zM-42.7572495712097,-40.095413295584166L-24.985505248456114,-10.475840159938242L-42.7572495712097,-40.095413295584166zM-26.00000101327896,-11.333333080013594L26.50000101327896,-11.333333080013594L-26.00000101327896,-11.333333080013594zM25.242753130867538,-10.404586619975918L43.014497453621125,-40.52415975562184L25.242753130867538,-11.40458661997592zM42.604766240863505,-39.177765630157744L16.790470515889915,-159.64446975296346L42.604766240863505,-39.177765630157744zM16.85355299963792,-158.31311394061697L-0.7071067592350637,-176.3737748208433L17.853552999637923,-158.31311394061697zM20.193993092023316,153.78961680387218L34.66665983322425,112.85816037728216L-29.218986351464814,113.01888965439215zM-28.886750858468545,112.54502536569439L-14.64161129393102,153.47831003389996L20.861695654612724,153.30999827149867z" style="fill:rgb(0,112,255);fill-opacity:1"></path><path d="M120.42729239922865,165.3187655113585L126.61691181543213,78.82470161943534L99.96829574734129,78.8565362468027zM100.43415498391225,78.3479927035191L105.85482427042625,164.85001784996808L120.96102023902205,164.8019962017059zM-106.23937426743804,165.3187655113585L-100.04975485123455,78.82470161943534L-126.6983709193254,78.8565362468027zM-126.23251168275443,78.3479927035191L-120.81184239624044,164.85001784996808L-105.70564642764464,164.8019962017059z" style="fill:rgb(0,185,255);fill-opacity:1"></path><path d="M-10.485754979475386,-220.50479619259636L10.486671667984572,-220.50492494942515L-0.0009166885091862476,-295.65694282256794z" style="fill:rgb(0,255,16);fill-opacity:1"></path><path d="M-17.353552999637923,-158.31311394061697L-17.35355299963792,-158.31311394061697L0.7071067592350637,-176.3737748208433zM-42.604766240863505,-39.177765630157744L-42.604766240863505,-39.177765630157744L-16.790470515889915,-159.64446975296346zM-25.242753130867538,-10.90458661997592L-25.242753130867538,-10.904586619975918L-43.014497453621125,-40.52415975562184zM26.00000101327896,-11.333333080013594L26.00000101327896,-11.333333080013594L-26.50000101327896,-11.333333080013594zM42.7572495712097,-40.095413295584166L42.7572495712097,-40.095413295584166L24.985505248456114,-10.475840159938242zM16.895235067955152,-159.15556854757472L16.895235067955152,-159.15556854757472L42.70953079292874,-38.688864424768994zM-0.3535533796175319,-176.0202214192743L-0.3535533796175318,-176.0202214192743L17.707106379255453,-157.95956053904797zM42.75453998640916,-38.70072493467651L17.252830287697194,-158.8061037298639L-0.5073689652876987,-176.49317353089734zM0.5033065176189486,-176.49726858429966L-17.24988366335065,-158.80224855267562L-42.753424163086954,-38.7004850584625zM-43.21852797282196,-40.28834394687119L-25.742735283680343,-10.900362064535123L26.46126156770403,-11.144626984167367zM25.318699244168446,-10.410388089145963L42.9076402126877,-39.618566721772595L-0.22633675477891024,-176.6377131223468zM0.07185413821652062,-176.63789918130766L-43.11196762598701,-39.37860887251355L26.040112812251177,-10.650159879444178z" style="fill:rgb(0,112,255);fill-opacity:1"></path><path d="M-0.29807511399929687,-153.94553531642785L8.084270227802268,-136.0432308719511L19.98047188217936,-38.67790368700444zM-19.98128532775833,-38.678004611480645L-8.087293353590004,-136.04493398663973L0.3019116853660054,-153.943731277263zM3.7355994490036393,-22.369711750676952L-2.985095586938514,-22.30787580885592L-20.58383727983837,-40.322411596067994zM-0.09594613421115245,-153.9924261258955L20.27911414230552,-39.521562924118044L2.483498679682277,-21.81935002523389zM3.245323026811352,-21.866809927650188L-20.32143468149313,-39.474489876503974L0.07611150691193291,-153.9920392710933zM0.7114426448825999,-153.45309769063678L-8.356218867974283,-135.0938137382371L-0.28855735511740016,-153.45309769063678zM-7.872034795272187,-136.49622519314715L-19.955930983647036,-38.67421036957843L-7.872034795272187,-136.49622519314715zM-20.18688680287865,-40.02022023162764L-2.1262264997925926,-21.9595593678649L-20.18688680287865,-40.02022023162764zM-3.3333332700033984,-22.666666160027187L3.8333332700033984,-22.666666160027187L-3.3333332700033984,-22.666666160027187zM2.4797798848979955,-22.313112763946044L20.540440187984053,-40.373773627708786L2.4797798848979955,-22.313112763946044zM19.89463220071014,-39.17043860256246L7.810736012335291,-136.9924534261312L19.89463220071014,-39.17043860256246zM8.144776223091682,-135.5469053492001L-0.4228852897651998,-153.9061893015998L8.144776223091682,-135.5469053492001zM-8.144776223091682,-135.5469053492001L-8.144776223091682,-135.5469053492001L0.4228852897651998,-153.9061893015998zM-19.89463220071014,-39.17043860256246L-19.89463220071014,-39.17043860256246L-7.810736012335291,-136.9924534261312zM-2.4797798848979955,-22.313112763946044L-2.4797798848979955,-22.313112763946044L-20.540440187984053,-40.373773627708786zM3.3333332700033984,-22.666666160027187L3.3333332700033984,-22.666666160027187L-3.8333332700033984,-22.666666160027187zM20.18688680287865,-40.02022023162764L20.18688680287865,-40.02022023162764L2.1262264997925926,-21.9595593678649zM7.872034795272187,-136.49622519314715L7.872034795272187,-136.49622519314715L19.955930983647036,-38.67421036957843zM-0.21144264488259984,-153.45309769063678L-0.21144264488259995,-153.45309769063678L8.356218867974283,-135.0938137382371zM19.98128532775833,-38.678004611480645L8.087293353590004,-136.04493398663973L-0.3019116853660054,-153.943731277263zM0.29807511399929687,-153.94553531642785L-8.084270227802268,-136.0432308719511L-19.98047188217936,-38.67790368700444zM-20.589492531333857,-40.316714122652485L-2.9786765368847674,-22.27991441102922L3.7348356504453752,-22.403370621919166zM2.489565109136705,-21.813208523729383L20.274832468549064,-39.52801543696409L-0.09773088990912306,-153.992115114554zM0.0741746336657519,-153.99237692018497L-20.324230184503076,-39.4677713621546L3.2500554030674773,-21.87319079290786z" style="fill:rgb(221,253,255);fill-opacity:1"></path></svg>